<svg width="334" height="863" viewBox="0 0 334 863" fill="none" xmlns="http://www.w3.org/2000/svg">
<path d="M127.5 1.5L103 62.5C99.6667 65.6667 92.2 72.4 89 74C85 76 80.5 80.5 80 90C79.5 99.5 85 108.5 101 124C117 139.5 113 151 101 159.5C89 168 84 172.5 63 171.5C42 170.5 36.5 179 34.5 189C32.5 199 22 219.5 23 235C24 250.5 22.5 258 25.5 264C28.5 270 33 277 32 279.5C31 282 29 291 34.5 300.5C40 310 35 333 25.5 344C16 355 23.5 371 25.5 376C27.5 381 41 388 42 392C43 396 42.5 399.5 38.5 406.5C34.5 413.5 36 423.5 23 424.5C10 425.5 4 430 3 443C2 456 0.499996 462 9.5 469C18.5 476 21.5 478 19.5 486.5C17.5 495 11.5 506.5 5 509.5C-1.5 512.5 6.5 530 11.5 534C16.5 538 20.5 536 27.5 552C34.5 568 38.5 568.5 32 586C25.5 603.5 13.5 639.5 32 650.5C50.5 661.5 52 665.5 58.5 665.5C65 665.5 76 666.5 84.5 677C93 687.5 93.5 692.5 90.5 703.5C87.5 714.5 85.5 732.5 97.5 734C109.5 735.5 119 734 126 729.5C133 725 139.5 724.5 146.5 727C153.5 729.5 157 735.5 160 745C163 754.5 168 767 183 772C198 777 201.5 783.5 212 785.5C222.5 787.5 221 785.5 249.5 803.5C272.3 817.9 296.333 832.5 305.5 838L329 858L332 861" stroke="#005EFF" stroke-width="4"/>
</svg>
